HIERARCHY
ROOT Hips
{
 OFFSET 0.000000 0.000000 0.000000
 CHANNELS 6 Xposition Yposition Zposition Yrotation Xrotation Zrotation
 JOINT Chest
 {
  OFFSET 0.000000 9.585900 0.002600
  CHANNELS 3 Yrotation Xrotation Zrotation
  JOINT Chest2
  {
   OFFSET 0.000000 9.601200 -0.005300
   CHANNELS 3 Yrotation Xrotation Zrotation
   JOINT Chest3
   {
    OFFSET 0.000000 9.561800 0.000000
    CHANNELS 3 Yrotation Xrotation Zrotation
    JOINT Chest4
    {
     OFFSET 0.000000 9.552100 0.000000
     CHANNELS 3 Yrotation Xrotation Zrotation
     JOINT Neck
     {
      OFFSET 0.000000 14.453000 0.000000
      CHANNELS 3 Yrotation Xrotation Zrotation
      JOINT Head
      {
       OFFSET 0.000000 8.936500 -0.011300
       CHANNELS 3 Yrotation Xrotation Zrotation
       End Site
       {
        OFFSET 0.000000 17.073600 -0.006000
       }
      }
     }
     JOINT RightCollar
     {
      OFFSET -2.921100 9.558500 0.000000
      CHANNELS 3 Yrotation Xrotation Zrotation
      JOINT RightShoulder
      {
       OFFSET -13.519700 0.000000 0.000000
       CHANNELS 3 Yrotation Xrotation Zrotation
       JOINT RightElbow
       {
        OFFSET 0.000000 -29.696600 0.000000
        CHANNELS 3 Yrotation Xrotation Zrotation
        JOINT RightWrist
        {
         OFFSET 0.000000 -24.004700 0.000000
         CHANNELS 3 Yrotation Xrotation Zrotation
         End Site
         {
          OFFSET 0.000000 -17.728500 0.000000
         }
        }
       }
      }
     }
     JOINT LeftCollar
     {
      OFFSET 2.921100 9.558500 0.000000
      CHANNELS 3 Yrotation Xrotation Zrotation
      JOINT LeftShoulder
      {
       OFFSET 13.519700 0.000000 0.000000
       CHANNELS 3 Yrotation Xrotation Zrotation
       JOINT LeftElbow
       {
        OFFSET 0.000000 -29.696600 0.000000
        CHANNELS 3 Yrotation Xrotation Zrotation
        JOINT LeftWrist
        {
         OFFSET 0.000000 -24.004700 0.000000
         CHANNELS 3 Yrotation Xrotation Zrotation
         End Site
         {
          OFFSET 0.000000 -17.728500 0.000000
         }
        }
       }
      }
     }
    }
   }
  }
 }
 JOINT RightHip
 {
  OFFSET -7.771700 -0.012900 -0.001300
  CHANNELS 3 Yrotation Xrotation Zrotation
  JOINT RightKnee
  {
   OFFSET 0.000000 -40.869800 0.001200
   CHANNELS 3 Yrotation Xrotation Zrotation
   JOINT RightAnkle
   {
    OFFSET 0.000000 -39.717900 0.002100
    CHANNELS 3 Yrotation Xrotation Zrotation
    JOINT RightToe
    {
     OFFSET 0.000000 -4.965400 11.033500
     CHANNELS 3 Yrotation Xrotation Zrotation
     End Site
     {
      OFFSET 0.000000 -1.423100 5.872300
     }
    }
   }
  }
 }
 JOINT LeftHip
 {
  OFFSET 7.771700 -0.012900 -0.001300
  CHANNELS 3 Yrotation Xrotation Zrotation
  JOINT LeftKnee
  {
   OFFSET 0.000000 -40.869800 0.001200
   CHANNELS 3 Yrotation Xrotation Zrotation
   JOINT LeftAnkle
   {
    OFFSET 0.000000 -39.717900 0.002100
    CHANNELS 3 Yrotation Xrotation Zrotation
    JOINT LeftToe
    {
     OFFSET 0.000000 -4.965400 11.033500
     CHANNELS 3 Yrotation Xrotation Zrotation
     End Site
     {
      OFFSET 0.000000 -1.423100 5.872300
     }
    }
   }
  }
 }
}
MOTION
Frames: 12
Frame Time: 0.008333
-16.275224 56.809164 33.180190 152.988905 -53.278420 1.526074 12.673224 23.404602 8.475068 1.963430 4.333386 0.922348 3.152762 6.819754 1.516959 10.077002 19.690776 5.687012 -0.364170 19.368390 -0.474123 -0.496916 0.143025 -0.782756 2.197490 2.972578 1.866648 15.325561 -33.382611 -7.560669 137.868148 -38.707983 -137.168191 7.039748 -7.720833 -43.750444 -2.213422 5.484453 2.252770 19.257804 -13.294875 2.710493 179.430442 -35.056444 173.698728 -23.536813 -19.068603 43.576035 19.217322 -27.183672 15.944893 -10.264555 66.990626 -3.639096 1.031783 21.851565 -1.061448 -0.692672 -13.023430 5.879682 -5.761851 -23.998475 12.851667 37.134864 68.542261 32.554031 -21.460751 22.812373 -5.046124 -0.150989 -12.610520 -1.765665
-16.276488 56.806424 33.182416 153.005609 -53.271641 1.500986 12.675115 23.383365 8.482777 1.963323 4.333684 0.920729 3.155043 6.817045 1.517698 10.081980 19.687117 5.692437 -0.373860 19.383448 -0.470294 -0.545566 0.212544 -0.753879 2.214342 2.967730 1.855903 15.311463 -33.363439 -7.549213 137.902619 -38.709254 -137.171550 7.020416 -7.742126 -43.731915 -2.183905 5.515989 2.256286 19.222180 -13.292150 2.696312 179.365149 -35.084679 173.714435 -23.540378 -19.074114 43.577224 19.203115 -27.194039 15.951080 -10.272000 66.986885 -3.644178 1.031946 21.857818 -1.068044 -0.689417 -13.025646 5.884133 -5.799032 -24.015851 12.860859 37.160147 68.554657 32.576486 -21.423778 22.835092 -5.034397 -0.167103 -12.633021 -1.777965
-16.277217 56.806490 33.182575 153.009040 -53.286084 1.487028 12.686143 23.382503 8.495763 1.965458 4.332362 0.920535 3.156682 6.813897 1.518068 10.077885 19.695328 5.701602 -0.377916 19.388929 -0.473166 -0.568305 0.251158 -0.736202 2.224458 2.960614 1.845817 15.322083 -33.349165 -7.550369 137.930850 -38.711905 -137.173776 7.022770 -7.738169 -43.731543 -2.171224 5.527694 2.256678 19.210829 -13.273754 2.678808 179.334636 -35.085371 173.712873 -23.499397 -19.058246 43.567630 19.194642 -27.182413 15.964825 -10.304162 66.981379 -3.671689 1.043033 21.866335 -1.072860 -0.691691 -13.030755 5.888892 -5.809110 -24.003540 12.869656 37.138377 68.565241 32.560704 -21.409790 22.836365 -5.037562 -0.164947 -12.636829 -1.779933
-16.279724 56.804319 33.183750 153.016809 -53.284980 1.474850 12.690775 23.369382 8.498258 1.965559 4.326935 0.921966 3.166346 6.798287 1.507757 10.076189 19.700075 5.714000 -0.386765 19.410073 -0.464729 -0.580757 0.281255 -0.722719 2.224257 2.974056 1.853707 15.326759 -33.342147 -7.549820 137.978627 -38.719973 -137.174479 7.025406 -7.734508 -43.728835 -2.161959 5.554608 2.268230 19.228201 -13.166839 2.595180 179.319721 -34.998686 173.639276 -23.498673 -19.060564 43.569475 19.183595 -27.186190 15.966406 -10.319957 66.980269 -3.686539 1.053739 21.877398 -1.077754 -0.695281 -13.038416 5.893994 -5.825244 -24.014845 12.869746 37.146585 68.580274 32.570550 -21.368923 22.847943 -5.017522 -0.184670 -12.648450 -1.791944
-16.277093 56.800071 33.189071 153.040788 -53.270941 1.410642 12.700905 23.336160 8.538090 1.972785 4.317948 0.916013 3.162806 6.803746 1.513511 10.082680 19.691801 5.712365 -0.400121 19.438062 -0.466170 -0.579260 0.279277 -0.701856 2.221274 2.982033 1.863707 15.330144 -33.334795 -7.548429 138.031868 -38.732420 -137.177942 7.025653 -7.730668 -43.717835 -2.145333 5.584559 2.279071 19.213916 -13.126817 2.561644 179.243896 -35.002834 173.639455 -23.475177 -19.054361 43.577425 19.149254 -27.211889 16.008447 -10.327424 66.962072 -3.692746 1.057171 21.902581 -1.084534 -0.697929 -13.047693 5.899628 -5.857807 -24.040863 12.898536 37.175518 68.586928 32.617671 -21.278774 22.869078 -4.955482 -0.251533 -12.664534 -1.829841
-16.279016 56.798363 33.190194 153.046662 -53.276570 1.397265 12.706958 23.332289 8.545247 1.977661 4.315446 0.913365 3.165327 6.802579 1.512836 10.084431 19.687573 5.714020 -0.407006 19.454012 -0.458567 -0.598562 0.315987 -0.686301 2.233235 2.981346 1.864515 15.341654 -33.326481 -7.553458 138.066149 -38.749737 -137.178425 7.024587 -7.725347 -43.700510 -2.095435 5.617757 2.279200 19.162889 -13.100008 2.537825 179.101529 -35.053841 173.680338 -23.519026 -19.085954 43.602632 19.138622 -27.209627 16.012944 -10.312817 66.959942 -3.674735 1.056486 21.915991 -1.092338 -0.699061 -13.056879 5.904179 -5.858187 -24.042971 12.897087 37.185294 68.584220 32.647396 -21.292108 22.880353 -4.971746 -0.252423 -12.675170 -1.826392
-16.281851 56.795990 33.191430 153.044102 -53.278956 1.396763 12.711926 23.331396 8.547476 1.990781 4.306944 0.905296 3.158625 6.808039 1.519266 10.092511 19.680358 5.704019 -0.413317 19.465000 -0.438741 -0.619854 0.351986 -0.674185 2.244744 2.979801 1.873415 15.358849 -33.320123 -7.565531 138.094213 -38.767238 -137.173265 7.023117 -7.717653 -43.683475 -2.077442 5.635032 2.298122 19.136425 -13.081413 2.522724 179.001778 -35.106155 173.715283 -23.541319 -19.105219 43.619265 19.137838 -27.210713 16.004136 -10.285029 66.961478 -3.637972 1.053896 21.929008 -1.101235 -0.701109 -13.066359 5.906759 -5.850995 -24.047235 12.893795 37.222538 68.577048 32.692615 -21.305410 22.887369 -4.975197 -0.244413 -12.677823 -1.827058
-16.284794 56.794828 33.191544 153.032917 -53.292223 1.409108 12.731799 23.335873 8.544025 1.988582 4.306574 0.907858 3.157355 6.811121 1.521309 10.128119 19.667257 5.684330 -0.438514 19.486792 -0.408034 -0.664324 0.414429 -0.641099 2.246425 2.966784 1.886869 15.345636 -33.303614 -7.556548 138.122799 -38.778069 -137.169128 7.019973 -7.708713 -43.668734 -2.099852 5.650591 2.338632 19.117455 -13.013537 2.484038 178.995511 -35.067243 173.685521 -23.519722 -19.095754 43.619995 19.144515 -27.199655 15.996237 -10.279036 66.964251 -3.625321 1.056074 21.936045 -1.105585 -0.702676 -13.072189 5.908541 -5.840474 -24.037973 12.887802 37.255146 68.567267 32.727594 -21.347752 22.903274 -4.971515 -0.248699 -12.688813 -1.835903
-16.286746 56.791867 33.193489 153.027734 -53.294038 1.409498 12.743437 23.327493 8.546968 1.991437 4.307762 0.907503 3.160681 6.809815 1.519885 10.137669 19.668603 5.684809 -0.450163 19.500189 -0.400766 -0.691849 0.456948 -0.615765 2.235156 2.964938 1.900221 15.388728 -33.296627 -7.588434 138.151691 -38.787213 -137.168351 7.019149 -7.703386 -43.657072 -2.102446 5.655924 2.354683 19.097254 -12.949909 2.450015 178.929526 -35.078244 173.687527 -23.536970 -19.111840 43.633743 19.147076 -27.202634 15.993691 -10.280211 66.964219 -3.620637 1.059314 21.944122 -1.108524 -0.703889 -13.076233 5.910220 -5.823613 -24.046060 12.885167 37.273163 68.563341 32.762819 -21.362671 22.917126 -4.977704 -0.230951 -12.696873 -1.838142
-16.288156 56.789312 33.195144 153.035879 -53.300633 1.400919 12.755682 23.314588 8.548850 1.983609 4.318182 0.913143 3.178317 6.804701 1.511636 10.133993 19.671750 5.691681 -0.458095 19.516510 -0.390211 -0.713249 0.487580 -0.596631 2.254724 2.952479 1.898371 15.447622 -33.283871 -7.637261 138.138854 -38.805729 -137.171449 7.045913 -7.680999 -43.676608 -2.094482 5.662841 2.365368 19.067707 -12.922230 2.438475 178.852778 -35.116924 173.709947 -23.532852 -19.118020 43.636906 19.140159 -27.200973 15.995587 -10.283119 66.964558 -3.623284 1.062070 21.958909 -1.104388 -0.703942 -13.087442 5.908202 -5.810430 -24.053725 12.874111 37.296273 68.559776 32.810185 -21.362904 22.939275 -4.977000 -0.218740 -12.711962 -1.845863
-16.288104 56.787923 33.196223 153.035070 -53.317261 1.397879 12.763117 23.324710 8.556749 1.982294 4.320623 0.914134 3.186916 6.799791 1.506264 10.138318 19.672572 5.689170 -0.465999 19.544640 -0.387752 -0.721729 0.485932 -0.576168 2.291596 2.933566 1.885049 15.466097 -33.272230 -7.652490 138.141085 -38.820750 -137.167986 7.038863 -7.694162 -43.654885 -2.082945 5.673542 2.372617 19.029536 -12.896755 2.425979 178.846768 -35.108509 173.697671 -23.498313 -19.103489 43.624973 19.135986 -27.189910 16.003517 -10.286492 66.963925 -3.625166 1.064110 21.976390 -1.103285 -0.703199 -13.101022 5.907542 -5.809926 -24.042894 12.875377 37.310916 68.559553 32.827934 -21.348228 22.958608 -4.977383 -0.224977 -12.725041 -1.842899
-16.286902 56.786748 33.197323 153.024284 -53.336223 1.402228 12.776005 23.337433 8.565126 1.986743 4.316945 0.911284 3.193076 6.801324 1.506580 10.142523 19.673385 5.686991 -0.474100 19.563365 -0.379677 -0.731738 0.493770 -0.561510 2.316889 2.920619 1.882152 15.488006 -33.264557 -7.675464 138.163435 -38.835774 -137.171313 7.031467 -7.707352 -43.634467 -2.075028 5.684024 2.382935 18.986930 -12.866802 2.404439 178.854308 -35.094869 173.675636 -23.471504 -19.094385 43.615732 19.138702 -27.177101 16.007168 -10.262804 66.964237 -3.592147 1.058836 21.994211 -1.113033 -0.704849 -13.114421 5.911357 -5.810931 -24.027858 12.881293 37.327733 68.560652 32.840333 -21.329004 22.984357 -4.976729 -0.246888 -12.745955 -1.835721
